# xmcd CD database file
#
# Track frame offsets:
#	150
#	29595
#	51065
#
# Disc length: 933 seconds
#
# Revision: 0
# Processed by: cddbd v1.5.1PL0 Copyright (c) Steve Scherf et al.
# Submitted via: CDex 1.51
#
DISCID=2003a303
DTITLE=Cembalo - 波の花
DYEAR=1900
DGENRE=Rock
TTITLE0=波の花
TTITLE1=輝く星のように
TTITLE2=OVER DRIVE
EXTD=
EXTT0=
EXTT1=
EXTT2=
PLAYORDER=
